solid OpenSCAD_Model
  facet normal -1 0 0
    outer loop
      vertex 0 0 4
      vertex 0 0 5
      vertex 0 30 4
    endloop
  endfacet
  facet normal -1 0 0
    outer loop
      vertex 0 30 4
      vertex 0 0 5
      vertex 0 30 5
    endloop
  endfacet
  facet normal 0 -1 0
    outer loop
      vertex 0 0 5
      vertex 0 0 4
      vertex 50 0 4
    endloop
  endfacet
  facet normal 0 -1 0
    outer loop
      vertex 50 0 5
      vertex 0 0 5
      vertex 50 0 4
    endloop
  endfacet
  facet normal 0 0 -1
    outer loop
      vertex 48 1 4
      vertex 50 0 4
      vertex 2 1 4
    endloop
  endfacet
  facet normal 0 0 -1
    outer loop
      vertex 0 0 4
      vertex 0 30 4
      vertex 1 29 4
    endloop
  endfacet
  facet normal 0 0 -1
    outer loop
      vertex 0 0 4
      vertex 1 29 4
      vertex 1 28 4
    endloop
  endfacet
  facet normal 0 0 -1
    outer loop
      vertex 0 0 4
      vertex 1 28 4
      vertex 1 2 4
    endloop
  endfacet
  facet normal 0 0 -1
    outer loop
      vertex 0 0 4
      vertex 1 2 4
      vertex 1 1 4
    endloop
  endfacet
  facet normal 0 0 -1
    outer loop
      vertex 0 0 4
      vertex 1 1 4
      vertex 50 0 4
    endloop
  endfacet
  facet normal 0 0 -1
    outer loop
      vertex 1 1 4
      vertex 2 1 4
      vertex 50 0 4
    endloop
  endfacet
  facet normal 0 0 -1
    outer loop
      vertex 49 1 4
      vertex 50 0 4
      vertex 48 1 4
    endloop
  endfacet
  facet normal 0 0 -1
    outer loop
      vertex 50 0 4
      vertex 49 1 4
      vertex 49 2 4
    endloop
  endfacet
  facet normal 0 0 -1
    outer loop
      vertex 49 2 4
      vertex 49 28 4
      vertex 50 0 4
    endloop
  endfacet
  facet normal 0 0 -1
    outer loop
      vertex 49 28 4
      vertex 49 29 4
      vertex 50 0 4
    endloop
  endfacet
  facet normal 0 0 -1
    outer loop
      vertex 49 29 4
      vertex 49 30 4
      vertex 50 0 4
    endloop
  endfacet
  facet normal 0 0 -1
    outer loop
      vertex 50 0 4
      vertex 49 30 4
      vertex 50 30 4
    endloop
  endfacet
  facet normal 0 0 -1
    outer loop
      vertex 1 29 4
      vertex 0 30 4
      vertex 1 30 4
    endloop
  endfacet
  facet normal 0 1 0
    outer loop
      vertex 0 30 4
      vertex 0 30 5
      vertex 1 30 4
    endloop
  endfacet
  facet normal 0 1 0
    outer loop
      vertex 1 30 4
      vertex 0 30 5
      vertex 1 30 5
    endloop
  endfacet
  facet normal 0 0 1
    outer loop
      vertex 48 1 5
      vertex 0 0 5
      vertex 50 0 5
    endloop
  endfacet
  facet normal 0 0 1
    outer loop
      vertex 1 2 5
      vertex 1 28 5
      vertex 0 30 5
    endloop
  endfacet
  facet normal 0 0 1
    outer loop
      vertex 50 30 5
      vertex 49 30 5
      vertex 50 0 5
    endloop
  endfacet
  facet normal 0 0 1
    outer loop
      vertex 49 30 5
      vertex 49 29 5
      vertex 50 0 5
    endloop
  endfacet
  facet normal 0 0 1
    outer loop
      vertex 49 29 5
      vertex 49 28 5
      vertex 50 0 5
    endloop
  endfacet
  facet normal 0 0 1
    outer loop
      vertex 49 28 5
      vertex 49 2 5
      vertex 50 0 5
    endloop
  endfacet
  facet normal 0 0 1
    outer loop
      vertex 49 2 5
      vertex 49 1 5
      vertex 50 0 5
    endloop
  endfacet
  facet normal 0 0 1
    outer loop
      vertex 2 1 5
      vertex 0 0 5
      vertex 48 1 5
    endloop
  endfacet
  facet normal 0 0 1
    outer loop
      vertex 1 1 5
      vertex 0 0 5
      vertex 2 1 5
    endloop
  endfacet
  facet normal 0 0 1
    outer loop
      vertex 0 30 5
      vertex 0 0 5
      vertex 1 1 5
    endloop
  endfacet
  facet normal 0 0 1
    outer loop
      vertex 0 30 5
      vertex 1 1 5
      vertex 1 2 5
    endloop
  endfacet
  facet normal 0 0 1
    outer loop
      vertex 0 30 5
      vertex 1 28 5
      vertex 1 29 5
    endloop
  endfacet
  facet normal 0 0 1
    outer loop
      vertex 49 1 5
      vertex 48 1 5
      vertex 50 0 5
    endloop
  endfacet
  facet normal 0 0 1
    outer loop
      vertex 1 29 5
      vertex 1 30 5
      vertex 0 30 5
    endloop
  endfacet
  facet normal 1 0 0
    outer loop
      vertex 50 0 5
      vertex 50 0 4
      vertex 50 30 4
    endloop
  endfacet
  facet normal 1 0 0
    outer loop
      vertex 50 30 5
      vertex 50 0 5
      vertex 50 30 4
    endloop
  endfacet
  facet normal 0 1 0
    outer loop
      vertex 49 30 4
      vertex 49 30 5
      vertex 50 30 4
    endloop
  endfacet
  facet normal 0 1 0
    outer loop
      vertex 50 30 4
      vertex 49 30 5
      vertex 50 30 5
    endloop
  endfacet
  facet normal -1 0 0
    outer loop
      vertex 49 30 5
      vertex 49 30 4
      vertex 49 29 5
    endloop
  endfacet
  facet normal -1 0 0
    outer loop
      vertex 49 29 5
      vertex 49 30 4
      vertex 49 29 4
    endloop
  endfacet
  facet normal 0 1 0
    outer loop
      vertex 48 29 0
      vertex 48 29 20
      vertex 49 29 0
    endloop
  endfacet
  facet normal 0 1 0
    outer loop
      vertex 49 29 19
      vertex 48 29 20
      vertex 49 29 20
    endloop
  endfacet
  facet normal 0 1 0
    outer loop
      vertex 49 29 5
      vertex 48 29 20
      vertex 49 29 19
    endloop
  endfacet
  facet normal 0 1 0
    outer loop
      vertex 49 29 4
      vertex 48 29 20
      vertex 49 29 5
    endloop
  endfacet
  facet normal 0 1 0
    outer loop
      vertex 49 29 0
      vertex 48 29 20
      vertex 49 29 4
    endloop
  endfacet
  facet normal 1 0 0
    outer loop
      vertex 49 28 4
      vertex 49 28 0
      vertex 49 29 0
    endloop
  endfacet
  facet normal 1 0 0
    outer loop
      vertex 49 29 4
      vertex 49 28 4
      vertex 49 29 0
    endloop
  endfacet
  facet normal -1 0 0
    outer loop
      vertex 49 28 5
      vertex 49 28 4
      vertex 49 2 5
    endloop
  endfacet
  facet normal -1 0 0
    outer loop
      vertex 49 2 5
      vertex 49 28 4
      vertex 49 2 4
    endloop
  endfacet
  facet normal 0 -1 0
    outer loop
      vertex 48 28 20
      vertex 48 28 0
      vertex 49 28 0
    endloop
  endfacet
  facet normal 0 -1 0
    outer loop
      vertex 49 28 5
      vertex 48 28 20
      vertex 49 28 4
    endloop
  endfacet
  facet normal 0 -1 0
    outer loop
      vertex 49 28 4
      vertex 48 28 20
      vertex 49 28 0
    endloop
  endfacet
  facet normal 0 -1 0
    outer loop
      vertex 49 28 19
      vertex 48 28 20
      vertex 49 28 5
    endloop
  endfacet
  facet normal 0 -1 0
    outer loop
      vertex 49 28 20
      vertex 48 28 20
      vertex 49 28 19
    endloop
  endfacet
  facet normal 0 1 0
    outer loop
      vertex 48 2 0
      vertex 48 2 20
      vertex 49 2 0
    endloop
  endfacet
  facet normal 0 1 0
    outer loop
      vertex 49 2 19
      vertex 48 2 20
      vertex 49 2 20
    endloop
  endfacet
  facet normal 0 1 0
    outer loop
      vertex 49 2 5
      vertex 48 2 20
      vertex 49 2 19
    endloop
  endfacet
  facet normal 0 1 0
    outer loop
      vertex 49 2 4
      vertex 48 2 20
      vertex 49 2 5
    endloop
  endfacet
  facet normal 0 1 0
    outer loop
      vertex 49 2 0
      vertex 48 2 20
      vertex 49 2 4
    endloop
  endfacet
  facet normal 1 0 0
    outer loop
      vertex 49 1 4
      vertex 49 1 0
      vertex 49 2 0
    endloop
  endfacet
  facet normal 1 0 0
    outer loop
      vertex 49 2 4
      vertex 49 1 4
      vertex 49 2 0
    endloop
  endfacet
  facet normal 0 -1 0
    outer loop
      vertex 48 1 4
      vertex 48 1 0
      vertex 49 1 0
    endloop
  endfacet
  facet normal 0 -1 0
    outer loop
      vertex 49 1 4
      vertex 48 1 4
      vertex 49 1 0
    endloop
  endfacet
  facet normal -1 0 0
    outer loop
      vertex 48 1 0
      vertex 48 1 4
      vertex 48 2 0
    endloop
  endfacet
  facet normal -1 0 0
    outer loop
      vertex 48 2 0
      vertex 48 1 4
      vertex 48 1 5
    endloop
  endfacet
  facet normal -1 0 0
    outer loop
      vertex 48 2 0
      vertex 48 1 5
      vertex 48 1 19
    endloop
  endfacet
  facet normal -1 0 0
    outer loop
      vertex 48 2 0
      vertex 48 1 19
      vertex 48 1 20
    endloop
  endfacet
  facet normal -1 0 0
    outer loop
      vertex 48 2 0
      vertex 48 1 20
      vertex 48 2 20
    endloop
  endfacet
  facet normal 0 1 0
    outer loop
      vertex 48 1 5
      vertex 48 1 4
      vertex 2 1 5
    endloop
  endfacet
  facet normal 0 1 0
    outer loop
      vertex 2 1 5
      vertex 48 1 4
      vertex 2 1 4
    endloop
  endfacet
  facet normal 1 0 0
    outer loop
      vertex 2 1 4
      vertex 2 1 0
      vertex 2 2 0
    endloop
  endfacet
  facet normal 1 0 0
    outer loop
      vertex 2 1 5
      vertex 2 1 4
      vertex 2 2 20
    endloop
  endfacet
  facet normal 1 0 0
    outer loop
      vertex 2 2 20
      vertex 2 1 4
      vertex 2 2 0
    endloop
  endfacet
  facet normal 1 0 0
    outer loop
      vertex 2 1 20
      vertex 2 1 19
      vertex 2 2 20
    endloop
  endfacet
  facet normal 1 0 0
    outer loop
      vertex 2 1 19
      vertex 2 1 5
      vertex 2 2 20
    endloop
  endfacet
  facet normal 0 -1 0
    outer loop
      vertex 1 1 4
      vertex 1 1 0
      vertex 2 1 0
    endloop
  endfacet
  facet normal 0 -1 0
    outer loop
      vertex 2 1 4
      vertex 1 1 4
      vertex 2 1 0
    endloop
  endfacet
  facet normal -1 0 0
    outer loop
      vertex 1 1 0
      vertex 1 1 4
      vertex 1 2 0
    endloop
  endfacet
  facet normal -1 0 0
    outer loop
      vertex 1 2 0
      vertex 1 1 4
      vertex 1 2 4
    endloop
  endfacet
  facet normal 0 1 0
    outer loop
      vertex 1 2 0
      vertex 1 2 4
      vertex 2 2 0
    endloop
  endfacet
  facet normal 0 1 0
    outer loop
      vertex 2 2 0
      vertex 1 2 4
      vertex 1 2 5
    endloop
  endfacet
  facet normal 0 1 0
    outer loop
      vertex 2 2 0
      vertex 1 2 5
      vertex 1 2 19
    endloop
  endfacet
  facet normal 0 1 0
    outer loop
      vertex 2 2 0
      vertex 1 2 19
      vertex 1 2 20
    endloop
  endfacet
  facet normal 0 1 0
    outer loop
      vertex 2 2 0
      vertex 1 2 20
      vertex 2 2 20
    endloop
  endfacet
  facet normal 1 0 0
    outer loop
      vertex 1 28 4
      vertex 1 28 5
      vertex 1 2 5
    endloop
  endfacet
  facet normal 1 0 0
    outer loop
      vertex 1 2 4
      vertex 1 28 4
      vertex 1 2 5
    endloop
  endfacet
  facet normal 0 -1 0
    outer loop
      vertex 1 28 4
      vertex 1 28 0
      vertex 2 28 0
    endloop
  endfacet
  facet normal 0 -1 0
    outer loop
      vertex 1 28 5
      vertex 1 28 4
      vertex 2 28 20
    endloop
  endfacet
  facet normal 0 -1 0
    outer loop
      vertex 2 28 20
      vertex 1 28 4
      vertex 2 28 0
    endloop
  endfacet
  facet normal 0 -1 0
    outer loop
      vertex 1 28 20
      vertex 1 28 19
      vertex 2 28 20
    endloop
  endfacet
  facet normal 0 -1 0
    outer loop
      vertex 1 28 19
      vertex 1 28 5
      vertex 2 28 20
    endloop
  endfacet
  facet normal -1 0 0
    outer loop
      vertex 1 28 0
      vertex 1 28 4
      vertex 1 29 0
    endloop
  endfacet
  facet normal -1 0 0
    outer loop
      vertex 1 29 0
      vertex 1 28 4
      vertex 1 29 4
    endloop
  endfacet
  facet normal 0 1 0
    outer loop
      vertex 1 29 0
      vertex 1 29 4
      vertex 2 29 0
    endloop
  endfacet
  facet normal 0 1 0
    outer loop
      vertex 2 29 0
      vertex 1 29 4
      vertex 1 29 5
    endloop
  endfacet
  facet normal 0 1 0
    outer loop
      vertex 2 29 0
      vertex 1 29 5
      vertex 1 29 19
    endloop
  endfacet
  facet normal 0 1 0
    outer loop
      vertex 2 29 0
      vertex 1 29 19
      vertex 1 29 20
    endloop
  endfacet
  facet normal 0 1 0
    outer loop
      vertex 2 29 0
      vertex 1 29 20
      vertex 2 29 20
    endloop
  endfacet
  facet normal 1 0 0
    outer loop
      vertex 1 30 4
      vertex 1 30 5
      vertex 1 29 5
    endloop
  endfacet
  facet normal 1 0 0
    outer loop
      vertex 1 29 4
      vertex 1 30 4
      vertex 1 29 5
    endloop
  endfacet
  facet normal -1 0 0
    outer loop
      vertex 1 28 5
      vertex 1 28 19
      vertex 1 29 5
    endloop
  endfacet
  facet normal -1 0 0
    outer loop
      vertex 1 29 5
      vertex 1 28 19
      vertex 1 29 19
    endloop
  endfacet
  facet normal -1 0 0
    outer loop
      vertex 1 1 5
      vertex 1 1 19
      vertex 1 2 5
    endloop
  endfacet
  facet normal -1 0 0
    outer loop
      vertex 1 2 5
      vertex 1 1 19
      vertex 1 2 19
    endloop
  endfacet
  facet normal 0 -1 0
    outer loop
      vertex 1 1 19
      vertex 1 1 5
      vertex 2 1 5
    endloop
  endfacet
  facet normal 0 -1 0
    outer loop
      vertex 2 1 19
      vertex 1 1 19
      vertex 2 1 5
    endloop
  endfacet
  facet normal 0 -1 0
    outer loop
      vertex 48 1 19
      vertex 48 1 5
      vertex 49 1 5
    endloop
  endfacet
  facet normal 0 -1 0
    outer loop
      vertex 49 1 19
      vertex 48 1 19
      vertex 49 1 5
    endloop
  endfacet
  facet normal 1 0 0
    outer loop
      vertex 49 1 19
      vertex 49 1 5
      vertex 49 2 5
    endloop
  endfacet
  facet normal 1 0 0
    outer loop
      vertex 49 2 19
      vertex 49 1 19
      vertex 49 2 5
    endloop
  endfacet
  facet normal 1 0 0
    outer loop
      vertex 49 28 19
      vertex 49 28 5
      vertex 49 29 5
    endloop
  endfacet
  facet normal 1 0 0
    outer loop
      vertex 49 29 19
      vertex 49 28 19
      vertex 49 29 5
    endloop
  endfacet
  facet normal 0 0 -1
    outer loop
      vertex 48 28 0
      vertex 48 29 0
      vertex 49 28 0
    endloop
  endfacet
  facet normal 0 0 -1
    outer loop
      vertex 49 28 0
      vertex 48 29 0
      vertex 49 29 0
    endloop
  endfacet
  facet normal 0 0 -1
    outer loop
      vertex 48 1 19
      vertex 50 0 19
      vertex 2 1 19
    endloop
  endfacet
  facet normal 0 0 -1
    outer loop
      vertex 0 0 19
      vertex 0 30 19
      vertex 1 29 19
    endloop
  endfacet
  facet normal 0 0 -1
    outer loop
      vertex 0 0 19
      vertex 1 29 19
      vertex 1 28 19
    endloop
  endfacet
  facet normal 0 0 -1
    outer loop
      vertex 0 0 19
      vertex 1 28 19
      vertex 1 2 19
    endloop
  endfacet
  facet normal 0 0 -1
    outer loop
      vertex 0 0 19
      vertex 1 2 19
      vertex 1 1 19
    endloop
  endfacet
  facet normal 0 0 -1
    outer loop
      vertex 0 0 19
      vertex 1 1 19
      vertex 50 0 19
    endloop
  endfacet
  facet normal 0 0 -1
    outer loop
      vertex 1 1 19
      vertex 2 1 19
      vertex 50 0 19
    endloop
  endfacet
  facet normal 0 0 -1
    outer loop
      vertex 49 1 19
      vertex 50 0 19
      vertex 48 1 19
    endloop
  endfacet
  facet normal 0 0 -1
    outer loop
      vertex 50 0 19
      vertex 49 1 19
      vertex 49 2 19
    endloop
  endfacet
  facet normal 0 0 -1
    outer loop
      vertex 49 2 19
      vertex 49 28 19
      vertex 50 0 19
    endloop
  endfacet
  facet normal 0 0 -1
    outer loop
      vertex 49 28 19
      vertex 49 29 19
      vertex 50 0 19
    endloop
  endfacet
  facet normal 0 0 -1
    outer loop
      vertex 49 29 19
      vertex 49 30 19
      vertex 50 0 19
    endloop
  endfacet
  facet normal 0 0 -1
    outer loop
      vertex 50 0 19
      vertex 49 30 19
      vertex 50 30 19
    endloop
  endfacet
  facet normal 0 0 -1
    outer loop
      vertex 1 29 19
      vertex 0 30 19
      vertex 1 30 19
    endloop
  endfacet
  facet normal -1 0 0
    outer loop
      vertex 49 30 20
      vertex 49 30 19
      vertex 49 29 20
    endloop
  endfacet
  facet normal -1 0 0
    outer loop
      vertex 49 29 20
      vertex 49 30 19
      vertex 49 29 19
    endloop
  endfacet
  facet normal 0 0 1
    outer loop
      vertex 48 1 20
      vertex 0 0 20
      vertex 50 0 20
    endloop
  endfacet
  facet normal 0 0 1
    outer loop
      vertex 2 2 20
      vertex 1 2 20
      vertex 2 1 20
    endloop
  endfacet
  facet normal 0 0 1
    outer loop
      vertex 50 30 20
      vertex 49 30 20
      vertex 50 0 20
    endloop
  endfacet
  facet normal 0 0 1
    outer loop
      vertex 49 30 20
      vertex 49 29 20
      vertex 50 0 20
    endloop
  endfacet
  facet normal 0 0 1
    outer loop
      vertex 49 28 20
      vertex 49 2 20
      vertex 50 0 20
    endloop
  endfacet
  facet normal 0 0 1
    outer loop
      vertex 49 29 20
      vertex 49 28 20
      vertex 50 0 20
    endloop
  endfacet
  facet normal 0 0 1
    outer loop
      vertex 49 29 20
      vertex 48 29 20
      vertex 49 28 20
    endloop
  endfacet
  facet normal 0 0 1
    outer loop
      vertex 49 2 20
      vertex 48 2 20
      vertex 50 0 20
    endloop
  endfacet
  facet normal 0 0 1
    outer loop
      vertex 2 1 20
      vertex 0 0 20
      vertex 48 1 20
    endloop
  endfacet
  facet normal 0 0 1
    outer loop
      vertex 1 2 20
      vertex 0 0 20
      vertex 2 1 20
    endloop
  endfacet
  facet normal 0 0 1
    outer loop
      vertex 1 2 20
      vertex 1 28 20
      vertex 0 30 20
    endloop
  endfacet
  facet normal 0 0 1
    outer loop
      vertex 0 30 20
      vertex 0 0 20
      vertex 1 2 20
    endloop
  endfacet
  facet normal 0 0 1
    outer loop
      vertex 1 29 20
      vertex 1 30 20
      vertex 0 30 20
    endloop
  endfacet
  facet normal 0 0 1
    outer loop
      vertex 1 29 20
      vertex 1 28 20
      vertex 2 28 20
    endloop
  endfacet
  facet normal 0 0 1
    outer loop
      vertex 0 30 20
      vertex 1 28 20
      vertex 1 29 20
    endloop
  endfacet
  facet normal 0 0 1
    outer loop
      vertex 48 2 20
      vertex 48 1 20
      vertex 50 0 20
    endloop
  endfacet
  facet normal 0 0 1
    outer loop
      vertex 48 28 20
      vertex 49 28 20
      vertex 48 29 20
    endloop
  endfacet
  facet normal 0 0 1
    outer loop
      vertex 2 28 20
      vertex 2 29 20
      vertex 1 29 20
    endloop
  endfacet
  facet normal -1 0 0
    outer loop
      vertex 48 28 0
      vertex 48 28 20
      vertex 48 29 0
    endloop
  endfacet
  facet normal -1 0 0
    outer loop
      vertex 48 29 0
      vertex 48 28 20
      vertex 48 29 20
    endloop
  endfacet
  facet normal -1 0 0
    outer loop
      vertex 49 28 20
      vertex 49 28 19
      vertex 49 2 20
    endloop
  endfacet
  facet normal -1 0 0
    outer loop
      vertex 49 2 20
      vertex 49 28 19
      vertex 49 2 19
    endloop
  endfacet
  facet normal 0 0 -1
    outer loop
      vertex 48 1 0
      vertex 48 2 0
      vertex 49 1 0
    endloop
  endfacet
  facet normal 0 0 -1
    outer loop
      vertex 49 1 0
      vertex 48 2 0
      vertex 49 2 0
    endloop
  endfacet
  facet normal 0 1 0
    outer loop
      vertex 48 1 20
      vertex 48 1 19
      vertex 2 1 20
    endloop
  endfacet
  facet normal 0 1 0
    outer loop
      vertex 2 1 20
      vertex 48 1 19
      vertex 2 1 19
    endloop
  endfacet
  facet normal 0 0 -1
    outer loop
      vertex 1 1 0
      vertex 1 2 0
      vertex 2 1 0
    endloop
  endfacet
  facet normal 0 0 -1
    outer loop
      vertex 2 1 0
      vertex 1 2 0
      vertex 2 2 0
    endloop
  endfacet
  facet normal 1 0 0
    outer loop
      vertex 1 28 19
      vertex 1 28 20
      vertex 1 2 20
    endloop
  endfacet
  facet normal 1 0 0
    outer loop
      vertex 1 2 19
      vertex 1 28 19
      vertex 1 2 20
    endloop
  endfacet
  facet normal 1 0 0
    outer loop
      vertex 2 28 20
      vertex 2 28 0
      vertex 2 29 0
    endloop
  endfacet
  facet normal 1 0 0
    outer loop
      vertex 2 29 20
      vertex 2 28 20
      vertex 2 29 0
    endloop
  endfacet
  facet normal 0 0 -1
    outer loop
      vertex 1 28 0
      vertex 1 29 0
      vertex 2 28 0
    endloop
  endfacet
  facet normal 0 0 -1
    outer loop
      vertex 2 28 0
      vertex 1 29 0
      vertex 2 29 0
    endloop
  endfacet
  facet normal 1 0 0
    outer loop
      vertex 1 30 19
      vertex 1 30 20
      vertex 1 29 20
    endloop
  endfacet
  facet normal 1 0 0
    outer loop
      vertex 1 29 19
      vertex 1 30 19
      vertex 1 29 20
    endloop
  endfacet
  facet normal 0 -1 0
    outer loop
      vertex 0 0 20
      vertex 0 0 19
      vertex 50 0 19
    endloop
  endfacet
  facet normal 0 -1 0
    outer loop
      vertex 50 0 20
      vertex 0 0 20
      vertex 50 0 19
    endloop
  endfacet
  facet normal 1 0 0
    outer loop
      vertex 50 0 20
      vertex 50 0 19
      vertex 50 30 19
    endloop
  endfacet
  facet normal 1 0 0
    outer loop
      vertex 50 30 20
      vertex 50 0 20
      vertex 50 30 19
    endloop
  endfacet
  facet normal 0 1 0
    outer loop
      vertex 49 30 19
      vertex 49 30 20
      vertex 50 30 19
    endloop
  endfacet
  facet normal 0 1 0
    outer loop
      vertex 50 30 19
      vertex 49 30 20
      vertex 50 30 20
    endloop
  endfacet
  facet normal 0 1 0
    outer loop
      vertex 0 30 19
      vertex 0 30 20
      vertex 1 30 19
    endloop
  endfacet
  facet normal 0 1 0
    outer loop
      vertex 1 30 19
      vertex 0 30 20
      vertex 1 30 20
    endloop
  endfacet
  facet normal -1 0 0
    outer loop
      vertex 0 0 19
      vertex 0 0 20
      vertex 0 30 19
    endloop
  endfacet
  facet normal -1 0 0
    outer loop
      vertex 0 30 19
      vertex 0 0 20
      vertex 0 30 20
    endloop
  endfacet
endsolid OpenSCAD_Model
